<svg xmlns="http://www.w3.org/2000/svg" width="256" height="256"><path fill-opacity=".016" d="M0 128.004v128.004l128.25-.254 128.25-.254.254-127.75L257.008 0H0v128.004m.485.496c0 70.4.119 99.053.265 63.672.146-35.38.146-92.98 0-128C.604 29.153.485 58.1.485 128.5" fill="#1976D2" fill-rule="evenodd"/><path fill-opacity=".267" d="M27.5 2.025C15.873 5.78 5.565 16.265 1.953 28.01.001 34.357-.042 36.912.226 130.532L.5 226.544l3.297 6.696c4.045 8.216 10.499 14.836 18.583 19.061l6.12 3.199h199l5.53-2.716c11.071-5.437 18.43-14.117 22.043-25.997 1.824-5.998 1.912-10.598 1.919-100.051.005-51.902-.384-94.538-.871-95.5-.483-.955-2.162-4.593-3.731-8.085-3.669-8.167-10.532-15.111-19.106-19.332L226.544.5 130.022.294C36.958.095 33.285.157 27.5 2.025M.48 128c0 52.525.121 74.012.27 47.75.148-26.263.148-69.238 0-95.5C.601 53.987.48 75.475.48 128m89.795-81.25c-3.349 2.063-7.143 4.514-8.432 5.448L79.5 53.895l4-.003c3.582-.002 4.506-.571 8.843-5.447C95.007 45.45 97.001 43 96.774 43c-.226 0-3.151 1.688-6.499 3.75m69.225 15.6c-7.141 1.854-12.379 4.844-17.197 9.817-6.086 6.284-8.259 11.764-8.259 20.833 0 9.191 2.346 15.116 6.92 17.482 1.717.887 6.033 4.084 9.592 7.102 5.246 4.45 7.507 5.68 11.957 6.503 11.048 2.042 24.098-2.523 31.848-11.143 10.915-12.141 10.372-29.352-1.294-41.031-8.776-8.785-22.023-12.559-33.567-9.563m-81.2 1.454c-14.69 5.24-23.197 17.428-22.06 31.603 1.47 18.306 19.926 32.045 39.173 29.158 3.834-.575 4.575-1.091 5.54-3.864 3.001-8.617 9.188-13.9 17.909-15.295 3.974-.635 4.067-.746 5.188-6.146.628-3.024.862-7.36.521-9.636-1.529-10.195-9.546-20.486-19.395-24.896-6.643-2.974-19.854-3.429-26.876-.924m18.7 6.06c0 .49.663 1.441 1.474 2.114 2.15 1.785 2.901 7.357 1.544 11.468-3.267 9.899-19.011 12.889-27.7 5.26l-3.64-3.196.572 6.312c.685 7.554 3.795 12.856 9.918 16.908 5.864 3.881 16.355 4.445 23.161 1.245C110.176 106.287 115 98.617 115 89.83c0-4.531-4.438-13.294-8.028-15.85C103.207 71.299 97 68.737 97 69.864m78.088 2.808c1.051 2.063 1.912 4.9 1.912 6.305 0 7.066-8.179 14.045-16.407 14.001-4.708-.025-12.344-3.167-13.215-5.436-1.132-2.949-2.378-1.516-2.356 2.708.098 19.045 24.203 28.801 38.53 15.595 7.993-7.368 9.622-18.45 3.968-26.994-2.541-3.839-8.123-8.098-12.182-9.293l-2.163-.637 1.913 3.751M56.425 119.518c1.554 8.416 8.957 29.081 14.094 39.344 7.222 14.426 16.033 26.619 27.532 38.101 15.172 15.149 31.516 25.749 51.449 33.367 13.781 5.267 14.746 5.25 5.374-.093-26.49-15.104-47.614-33.077-63.158-53.737-8.451-11.232-18.749-31.552-21.752-42.919-1.247-4.72-2.6-8.581-3.007-8.581-.408 0-3.109-2.129-6.004-4.732l-5.263-4.732.735 3.982M155 168.883c-8.857 2.888-15.116 8.471-16.422 14.651-.803 3.797 1.322 10.007 5.507 16.09 3.961 5.757 17.481 19.099 25.415 25.081 5.198 3.919 22.213 13.295 24.127 13.295.978 0-.349-13.73-2.195-22.717-.88-4.281-3.192-12.733-5.138-18.783-7.057-21.941-11.705-27.719-22.664-28.176-3.372-.141-7.255.111-8.63.559" fill="#1976D2" fill-rule="evenodd"/><path fill-opacity=".451" d="M30.195 1.655C21.493 3.736 12.735 9.903 7.39 17.713-.196 28.798 0 25.881 0 127.811c0 56.217.378 91.907 1.008 95.229 2.473 13.044 9.89 22.823 21.755 28.688l7.633 3.772H225.5l5.747-2.321c6.602-2.666 15.684-10.49 19.226-16.562 1.32-2.264 3.329-7.483 4.464-11.597 2.014-7.302 2.063-9.635 2.063-98.263 0-52.328-.384-91.52-.906-92.521-.499-.955-1.385-3.536-1.969-5.736-2.809-10.572-12.605-21.136-23.781-25.643L224.5.5l-94-.177C49.752.172 35.611.359 30.195 1.655M.48 128c0 50.875.121 71.687.27 46.25.148-25.438.148-67.063 0-92.5C.601 56.312.48 77.125.48 128M92 45.162c-8.631 4.932-12.333 8.01-10.802 8.981 2.963 1.88 5.593.622 11.802-5.643 3.543-3.575 6.005-6.496 5.471-6.491-.534.006-3.446 1.424-6.471 3.153M81.024 62.541C69.98 65.634 60.67 73.651 57.575 82.734 50.342 103.962 66.459 125 89.956 125c3.784 0 7.593-.273 8.463-.607.87-.334 2.506-2.697 3.635-5.25 3.647-8.247 9.967-13.143 16.965-13.143 2.573 0 3.323-.574 4.532-3.468 1.667-3.99 1.886-12.419.456-17.567-4.614-16.608-25.27-27.384-42.983-22.424m75.846-.041c-14.829 4.774-25.031 19.015-23.587 32.925.843 8.127 3.418 13.382 7.602 15.516 1.998 1.019 6.418 4.339 9.824 7.378 5.461 4.873 6.852 5.607 11.794 6.225 16.036 2.003 30.966-5.588 37.456-19.044 3.401-7.052 3.401-17.948 0-25-5.513-11.431-16.734-18.486-30.407-19.118-5.339-.247-9.612.13-12.682 1.118M42 91.937V121H49.031l-.266-28.75L48.5 63.5l-3.25-.313-3.25-.314v29.064m169.667-28.27c-.367.366-.667 13.443-.667 29.06v28.394l3.75-.311 3.75-.31.281-26.5c.154-14.575.033-27.513-.269-28.75-.408-1.67-1.275-2.25-3.364-2.25-1.548 0-3.115.3-3.481.667M99.474 72.95c3.808 7.364.51 15.335-7.933 19.17-6.561 2.981-14.02 1.946-18.957-2.63C69.278 86.426 69 86.413 69 89.318 69 101.257 79.78 112 91.76 112c14.268 0 25.377-12.925 22.263-25.904-1.387-5.78-5.832-11.448-11.08-14.125-5.047-2.575-5.274-2.511-3.469.979m76.079-.2c3.384 6.488.353 15.019-6.573 18.498-3.959 1.99-12.977 2.336-16.296.627-1.201-.619-3.195-2.045-4.43-3.171-3.166-2.883-3.837-1.514-2.464 5.032 5.064 24.142 40.179 23.526 44.582-.781.985-5.439-1.661-12.868-6.092-17.104-6.343-6.065-11.167-7.779-8.727-3.101m-145.886-.083c-.367.366-.667 8.916-.667 19V110h6V72h-2.333c-1.284 0-2.634.3-3 .667M225 94.066v19.067l2.75-.317 2.75-.316.272-18.75.272-18.75H225v19.066m-110.946 20.09c-5.983 4.082-7.554 8-7.554 18.844 0 15.551 4.408 21.514 15.881 21.484 9.029-.024 17.37-4.357 26.003-13.508 3.639-3.858 6.616-7.502 6.616-8.098 0-.597-3.11-4.195-6.911-7.996-8.164-8.164-15.427-11.908-24.45-12.603-5.264-.406-6.63-.139-9.585 1.877m-57.83 6.074c1.421 7.823 7.404 25.042 12.412 35.727 13.802 29.445 39.284 55.23 68.741 69.56 8.348 4.061 25.524 10.483 28.038 10.483.571 0-3.772-2.675-9.652-5.946-43.795-24.354-74.412-58.877-85.055-95.906-2.14-7.446-2.87-8.723-6.729-11.777-2.381-1.883-4.95-4.313-5.71-5.398-2.336-3.334-3.04-2.213-2.045 3.257M151 170.081c-7.999 3.621-13 9.816-13 16.105 0 11.291 24.516 36.998 45.234 47.432 3.83 1.929 8.056 3.922 9.391 4.43l2.428.923-.626-6.736c-.988-10.652-4.074-24.805-8.007-36.735-7.324-22.211-12.06-27.521-24.508-27.478-4.272.015-7.914.702-10.912 2.059" fill="#1976D2" fill-rule="evenodd"/><path fill-opacity=".406" d="M104.734 13.584C82.521 17.6 63.979 30.043 51.428 49.356c-4.476 6.889-5.23 7.587-8.223 7.614-3.8.035-8.205 3.784-8.205 6.985C35 65.674 34.363 66 31 66c-2.667 0-4.667.667-6 2-1.873 1.873-2 3.333-2 23.045 0 21.012.004 21.05 2.455 23.5 1.683 1.683 3.569 2.455 6 2.455 3.284 0 3.545.224 3.545 3.045 0 4.733 3.856 7.955 9.52 7.955 2.536 0 5.4-.422 6.363-.937 1.544-.827 2.072.202 4.455 8.68 6.84 24.337 18.295 44.865 35.258 63.187 24.231 26.173 63.615 44.634 101.654 47.651l8.75.694v-65.937c0-64.947.15-68.338 3.016-68.338.338 0 .666 2.358.728 5.24.094 4.34.565 5.629 2.74 7.5 3.824 3.289 11.68 3.187 15.061-.195 1.35-1.35 2.455-3.375 2.455-4.5 0-1.719.637-2.045 4-2.045 2.667 0 4.667-.667 6-2 1.876-1.876 2-3.333 2-23.427V72.145l-2.635-2.072c-1.48-1.165-4.11-2.073-6-2.073-3.083 0-3.365-.255-3.365-3.045 0-1.901-.923-3.969-2.455-5.5-2.033-2.034-3.448-2.459-8.25-2.479-5.616-.023-5.888-.15-8.795-4.112-1.65-2.248-7.324-8.2-12.608-13.226C173.073 20.79 150.89 11.924 124 12.103c-6.325.042-14.995.708-19.266 1.481m4.305 5.515c-15.84 2.435-31.072 9.889-41.453 20.288-5.287 5.297-15.14 18.439-14.357 19.151.149.135 3.871-.663 8.271-1.773 7.04-1.777 8.693-2.66 13.774-7.362 15.489-14.331 38.411-21.911 58.556-19.364 15.552 1.967 26.921 6.869 39.784 17.155 7.546 6.034 8.274 6.376 16.886 7.93 4.95.893 9.201 1.442 9.447 1.22.819-.742-15.363-16.45-21.519-20.888-8.163-5.885-21.18-11.986-30.928-14.495-9.395-2.418-28.748-3.355-38.461-1.862M114 36.69c-3.639.609-15.013 4.341-18.5 6.07C90.38 45.3 79 53.105 79 54.077c0 .508 3.73.923 8.29.923 9.615 0 18.363 2.022 24.625 5.691 5.841 3.423 12.437 10.118 15.09 15.318l2.142 4.2 2.145-4.354c3.099-6.292 10.284-13.028 17.89-16.773 5.223-2.571 8.322-3.374 14.717-3.813 4.456-.305 8.094-.828 8.086-1.162-.009-.334-2.371-2.341-5.25-4.46-12.584-9.261-26.207-13.735-41.145-13.511-4.999.075-10.215.324-11.59.554M79.525 62.606c-15.327 4.885-25.848 19.576-24.169 33.75 2.15 18.156 21.981 32.32 40.507 28.933 3.898-.713 4.527-1.223 5.9-4.793 3.389-8.814 8.326-12.998 16.686-14.144 4.061-.557 4.596-.955 5.689-4.233 1.863-5.584 1.426-15.055-.94-20.405-6.88-15.552-27.086-24.393-43.673-19.108m74.475.551c-7.452 2.934-17.025 12.478-19.329 19.271-2.333 6.879-2.153 15.58.446 21.623 1.642 3.816 3.236 5.61 7.097 7.985 2.738 1.685 7.24 5.179 10.003 7.764l5.025 4.7h10.629c9.772 0 11.096-.236 16.419-2.932 6.447-3.264 12.388-9.146 15.877-15.719 1.89-3.561 2.309-5.89 2.307-12.849-.002-7.263-.389-9.237-2.66-13.563-3.183-6.063-8.835-11.384-16.028-15.091-4.453-2.294-6.783-2.773-14.786-3.039-7.883-.262-10.436.053-15 1.85M41.476 64.203c-.28.728-.389 13.918-.242 29.31L41.5 121.5h8v-58l-3.758-.311c-2.435-.201-3.937.156-4.266 1.014m168.976.06c-.266.695-.365 13.858-.218 29.25l.266 27.987h8l.265-29.25.265-29.25h-4.046c-2.338 0-4.252.534-4.532 1.263m-110.195 9.791c1.25 2.526 1.701 4.86 1.297 6.701-2.83 12.884-19.399 17.593-29.804 8.469-1.63-1.429-1.748-1.267-1.728 2.371.051 9.079 6.997 17.011 16.996 19.409 9.712 2.33 20.686-2.629 24.849-11.23 5.299-10.945.151-24.395-10.952-28.616l-2.576-.98 1.918 3.876m75.93-.14c2.49 5.031 1.265 10.318-3.418 14.752-6.417 6.078-15.488 6.738-23.156 1.685l-3.888-2.561.489 5.08c1.669 17.376 25.227 24.486 38.176 11.523 7.358-7.366 7.504-20.517.312-28.227-1.851-1.985-8.657-6.166-10.037-6.166-.228 0 .457 1.761 1.522 3.914M29 91.5V111h6V72h-6v19.5m196 2V113h6V74h-6v19.5m-108.316 18.937c-2.099.755-4.67 2.146-5.714 3.09-5.696 5.155-7.359 21.954-3.052 30.821 3.115 6.412 6.878 8.644 14.582 8.647 8.762.005 16.947-4.149 25.665-13.024 3.906-3.976 6.835-7.826 6.835-8.983 0-1.154-2.728-4.753-6.34-8.365-10.329-10.329-23.348-15.29-31.976-12.186M55 115.438c0 2.873 3.743 16.529 7.006 25.562 15.762 43.632 49.094 76.845 92.206 91.879 4.791 1.671 10.83 3.292 13.42 3.603 2.589.311 5.869.83 7.288 1.155 1.587.363-.26-1.335-4.802-4.413-15.825-10.724-33.254-29.367-36.603-39.152-4.332-12.659 1.027-23.291 14.985-29.732 7.834-3.616 18.81-3.89 25-.625 8.138 4.293 12.34 10.635 18.076 27.285l3.272 9.5.076-39.286.076-39.286-3.75 2.562c-5.341 3.65-15.382 6.51-22.855 6.51-5.42 0-6.396.267-6.405 1.75-.016 2.965-9.466 14.524-15.636 19.126-7.754 5.782-13.545 8.225-21.008 8.859-8.443.718-12.768-.289-16.926-3.94-4.788-4.203-7.22-9.338-8.586-18.125l-1.146-7.37-8.094-.026c-5.589-.018-10.029-.687-14.346-2.161-6.709-2.292-7.787-3.002-15.934-10.508C56.5 115.091 55 114.198 55 115.438m98.332 53.413c-14.038 4.851-18.72 14.529-12.739 26.332 3.049 6.018 19.066 22.888 28.407 29.921 6.275 4.725 19.115 11.941 23.75 13.348 2.019.613 2.249.342 2.244-2.635-.019-10.964-6.893-39.749-12.543-52.523-6.475-14.642-15.536-19.137-29.119-14.443" fill="#1976D2" fill-rule="evenodd"/></svg>